# xmcd
#
# Track frame offsets:
#	150
#	17881
#	36682
#	49473
#	61016
#	77621
#	96544
#	111304
#	121869
#	133881
#	153390
#	164255
#	181682
#
# Disc length: 2560 seconds
#
# Revision: 1
# Processed by: cddbd v1.5.2PL0 Copyright (c) Steve Scherf et al.
# Submitted via: audiograbber 1.83.01
#
DISCID=b209fe0d
DTITLE=Kavaliri - Prelijepi moj kroj
DYEAR=2000
DGENRE=Country
TTITLE0=Prelijepi moj kroj
TTITLE1=Mi smo zagorci takvi
TTITLE2=Na Varskevemu brijegu
TTITLE3=Starci, starci moulo
TTITLE4=Kumico
TTITLE5=Veselo, veselo zagorci
TTITLE6=Bourico
TTITLE7=Snaci si manje raklo
TTITLE8=Noc je kasna
TTITLE9=Djevojcico meilo
TTITLE10=Tiho tece rijeka Bednja
TTITLE11=Kad sunce zajde za oblak
TTITLE12=Polka
EXTD=
EXTT0=
EXTT1=
EXTT2=
EXTT3=
EXTT4=
EXTT5=
EXTT6=
EXTT7=
EXTT8=
EXTT9=
EXTT10=
EXTT11=
EXTT12=
PLAYORDER=
